# xmcd CD database file
#
# Track frame offsets:
#	150
#	10097
#	19283
#	32404
#	46403
#	59426
#	72477
#	81530
#	93892
#	108475
#	123576
#	138097
#	149835
#	159780
#	168966
#	182061
#	196069
#	209093
#	222145
#	231159
#	243522
#	258094
#	270015
#	284431
#	307377
#
# Disc length: 4178 seconds
#
# Revision: 0
# Processed by: cddbd v1.5.2PL0 Copyright (c) Steve Scherf et al.
# Submitted via: CDex 1.51
#
DISCID=6c105019
DTITLE=Shawnee Press - Jazzed On Christmas
DYEAR=2007
DGENRE=Jazz
TTITLE0=Joy To The World
TTITLE1=Go, Tell It On The Mountain
TTITLE2=God Rest Ye Merry, Gentlemen
TTITLE3=What Child Is This
TTITLE4=Infant Holy, Infant Lowly
TTITLE5=O Come, O Come, Emmanuel
TTITLE6=Good Christian Men, Rejoice
TTITLE7=We Thee King
TTITLE8=O Come, All Ye Faithful
TTITLE9=Away In A  Manger
TTITLE10=O Little Town Of Bethlehem
TTITLE11=Silent Night! Holy Night!
TTITLE12=Joy To The World
TTITLE13=Go, Tell It On The Mountain
TTITLE14=God Rest Ye Merry, Gentlemen
TTITLE15=What Child Is This
TTITLE16=Infant Holy, Infant Lowly
TTITLE17=O Come, O Come, Emmanuel
TTITLE18=Good Christian Men, Rejoice
TTITLE19=We Thee King
TTITLE20=O Come, All Ye Faithful
TTITLE21=Away In A  Manger
TTITLE22=O Little Town Of Bethlehem
TTITLE23=Silent Night! Holy Night!
TTITLE24=Data Track
EXTD=YEAR: 2007
EXTT0=
EXTT1=
EXTT2=
EXTT3=
EXTT4=
EXTT5=
EXTT6=
EXTT7=
EXTT8=
EXTT9=
EXTT10=
EXTT11=
EXTT12=
EXTT13=
EXTT14=
EXTT15=
EXTT16=
EXTT17=
EXTT18=
EXTT19=
EXTT20=
EXTT21=
EXTT22=
EXTT23=
EXTT24=
PLAYORDER=
